<svg xmlns="http://www.w3.org/2000/svg" width="748.1" height="271.92" viewBox="0 0 748.1 271.92"><rect width="748.1" height="271.92" fill="none"/><path d="M344.45,185.43H327.89V109h16.56Z" fill="#f44e27"/><path d="M466.23,123.91v14.37H452.15c-9.82,0-12.89,5.79-12.89,15.14v32H422.7V123.91h16.55l0,11.25c2-5.11,8.2-11.25,16.29-11.25Z" fill="#f44e27"/><path d="M383.57,122.5a32.17,32.17,0,1,0,32.17,32.17A32.17,32.17,0,0,0,383.57,122.5Zm0,49.53a17.36,17.36,0,1,1,17.36-17.36A17.36,17.36,0,0,1,383.57,172Z" fill="#f44e27"/><polygon points="246.16 123.92 234.66 123.92 215.41 143.16 196.16 123.92 184.65 123.92 184.65 135.42 203.9 154.67 184.65 173.92 184.65 185.43 196.16 185.43 215.41 166.18 234.65 185.43 246.16 185.43 246.16 173.92 226.92 154.67 246.16 135.43 246.16 123.92" fill="#f44e27"/><path d="M289.85,122.51c-7.26,0-15.88,4.24-19,9v-7.56H254.35v76.41h16.56V177.87c3.13,4.76,11.57,9,18.94,9,17.76,0,31.08-14.41,31.08-32.17S307.61,122.51,289.85,122.51ZM288.76,172a17.36,17.36,0,1,1,17.36-17.36A17.36,17.36,0,0,1,288.76,172Z" fill="#f44e27"/><path d="M136.06,148.64A109.85,109.85,0,0,0,184.65,62.4,109.86,109.86,0,0,0,98.41,111a46.61,46.61,0,0,0-36.79,9v7.83a57.55,57.55,0,0,1,57.58,57.57H127A46.6,46.6,0,0,0,136.06,148.64Zm7.45-58.83a13.74,13.74,0,1,1-13.74,13.74A13.74,13.74,0,0,1,143.51,89.81Z" fill="#f44e27"/><path d="M92,170.27a15.16,15.16,0,0,0-29.86-3.74,15.73,15.73,0,0,0-.47,3.72v0h0v15.15H76.8A15.18,15.18,0,0,0,92,170.27Z" fill="#f44e27"/><path d="M560.5,154.87c0,19.89-12.22,31.76-29.12,31.76-9.35,0-17.5-3.84-21.21-10.19v23.88H497.1V124.06h12l1.08,9.35c3.71-6.35,11.62-10.54,21.21-10.54C547.68,122.87,560.5,134.25,560.5,154.87Zm-13.54,0c0-12.59-7.43-20.38-18.22-20.38-10.3-.12-18.21,7.79-18.21,20.5s7.91,20,18.21,20C539.41,175,547,167.45,547,154.87Z" fill="#908095"/><path d="M626.89,175.6v9.83h-7.42c-5,0-9.59-1.92-10.55-7.79-3.48,5.39-11,9-20.62,9-13.54,0-22.17-7.08-22.17-18.82,0-10.43,6.59-18.1,23.37-18.1h17.86V146.6c0-9-5.39-13.19-13.42-13.19s-13.43,4.08-13.79,10.43h-12.1c.36-13.3,11.27-21,26.37-21,14.38,0,26.12,7.19,26.12,23.85v24.81c0,3.35,1.32,4.07,4.08,4.07Zm-19.53-16.9H591.3c-8.87,0-11.63,4-11.63,8.51,0,6.23,4.92,9,11.63,9,9.11,0,16.06-4.91,16.06-15Z" fill="#908095"/><path d="M656.14,174.88,673,123.94l13.66.12-25.77,71.2c-4.31,12-11.86,14.14-21,14.14H626.41V197.77h13.67c5.15,0,8.15-2.76,8.15-8.15a14.08,14.08,0,0,0-1.08-5l-23.37-60.53h14.14Z" fill="#908095"/></svg>