<?xml version="1.0" encoding="utf-8"?>
<!-- Generator: Adobe Illustrator 24.3.0, SVG Export Plug-In . SVG Version: 6.00 Build 0)  -->
<svg version="1.1" id="Layer_1" xmlns="http://www.w3.org/2000/svg" xmlns:xlink="http://www.w3.org/1999/xlink" x="0px" y="0px"
	 viewBox="0 0 1821.9 381.4" style="enable-background:new 0 0 1821.9 381.4;" xml:space="preserve">
<style type="text/css">
	.st0{fill:#1D4ED8;}
	.st1{fill:#FFFFFF;}
</style>
<g id="Layer_2_1_">
</g>
<g id="Layer_1_1_">
	<rect x="3049.1" y="-220.6" class="st0" width="1920" height="1080"/>
	<g>
		<g>
			<path class="st1" d="M3164,190h95.3l151.5,192.6l-89.6,114.9h-98.6c-0.5,0-0.7-0.5-0.4-0.9l115.6-143.7l-46.8,0.3l-127.4-162.3
				C3163.3,190.5,3163.6,190,3164,190z"/>
			<path class="st1" d="M3588.5,448.8h-95.3l-151.5-192.6l89.6-114.9h98.6c0.5,0,0.7,0.5,0.4,0.9l-50.9,63.3l-21.4,26.6l-43.3,53.9
				l46.8-0.3L3588.9,448C3589.2,448.3,3589,448.8,3588.5,448.8z"/>
		</g>
		<g>
			<g>
				<path class="st1" d="M3651,388V236.8h27.1l58.6,69.7l58.4-69.7h27.3V388h-22.9V267.3l-62.8,74.8l-63-74.8v120.8L3651,388
					L3651,388L3651,388z"/>
				<path class="st1" d="M3858.8,384.3c-4.1-2.5-7.4-5.8-9.9-10c-2.5-4.1-3.7-8.6-3.7-13.5v-133h22.7v38.4h50v22.7h-50v71.2
					c0,1.4,0.5,2.6,1.6,3.7s2.3,1.6,3.7,1.6h44.7v22.7h-45.4C3867.5,388,3862.9,386.8,3858.8,384.3z"/>
				<path class="st1" d="M3947.8,384.3c-4.1-2.5-7.5-5.8-10-10c-2.5-4.1-3.8-8.6-3.8-13.5v-67.2c0-4.9,1.3-9.4,3.8-13.5
					s5.8-7.5,10-10c4.1-2.5,8.6-3.8,13.5-3.8h69.3c5,0,9.6,1.3,13.8,3.8c4.1,2.5,7.4,5.8,9.9,10c2.4,4.1,3.7,8.6,3.7,13.5v44.9
					h-101.2v21.6c0,1.4,0.5,2.6,1.6,3.7c1.1,1,2.3,1.6,3.7,1.6h96v22.7h-96.6C3956.5,388,3952,386.8,3947.8,384.3z M3956.8,317.3
					h78.3v-23.1c0-1.4-0.5-2.6-1.5-3.7s-2.2-1.6-3.6-1.6h-68c-1.4,0-2.6,0.5-3.7,1.6c-1,1-1.6,2.3-1.6,3.7v23.1H3956.8z"/>
				<path class="st1" d="M4093.2,384.3c-4.1-2.5-7.5-5.8-10-10c-2.5-4.1-3.8-8.6-3.8-13.5v-67.2c0-4.9,1.3-9.4,3.8-13.5
					s5.8-7.5,10-10c4.1-2.5,8.6-3.8,13.5-3.8h96.2V289h-95.6c-1.4,0-2.6,0.5-3.7,1.6c-1.1,1-1.6,2.3-1.6,3.7v65.9
					c0,1.4,0.5,2.6,1.6,3.7c1,1,2.3,1.6,3.7,1.6h96v22.7h-96.6C4101.8,388,4097.3,386.8,4093.2,384.3z"/>
				<path class="st1" d="M4226,388V226.3h22.7v39.9h73.9c4.9,0,9.4,1.3,13.5,3.8s7.5,5.8,10,10c2.5,4.1,3.8,8.6,3.8,13.5V388h-22.7
					v-93.9c0-1.4-0.5-2.6-1.6-3.7s-2.3-1.6-3.7-1.6h-68c-1.4,0-2.6,0.5-3.7,1.6c-1.1,1-1.6,2.3-1.6,3.7V388H4226z"/>
				<path class="st1" d="M4365.6,388v-27.1l120.8-101.4h-120.8v-22.7h151.2v27.1l-120.7,101.5h120.8v22.7L4365.6,388L4365.6,388z"/>
				<path class="st1" d="M4538.3,249v-22.7h22.7V249H4538.3z M4538.3,388V266.2h22.7V388H4538.3z"/>
				<path class="st1" d="M4597.4,384.3c-4.1-2.5-7.5-5.8-10-10c-2.5-4.1-3.8-8.6-3.8-13.5V226.3h22.7v133.8c0,1.4,0.5,2.6,1.6,3.7
					c1.1,1,2.3,1.6,3.7,1.6h22.1v22.7H4611C4606,388,4601.5,386.8,4597.4,384.3z"/>
				<path class="st1" d="M4663.5,384.3c-4.1-2.5-7.5-5.8-10-10c-2.5-4.1-3.8-8.6-3.8-13.5V226.3h22.7v133.8c0,1.4,0.5,2.6,1.6,3.7
					c1,1,2.3,1.6,3.7,1.6h22.1v22.7h-22.7C4672.2,388,4667.6,386.8,4663.5,384.3z"/>
				<path class="st1" d="M4743.2,388c-5,0-9.6-1.3-13.8-3.8c-4.1-2.5-7.4-5.8-9.9-10c-2.5-4.1-3.7-8.6-3.7-13.5v-44.9h101v-21.6
					c0-1.4-0.5-2.6-1.5-3.7s-2.2-1.6-3.6-1.6h-96v-22.7h96.6c5,0,9.6,1.3,13.8,3.8c4.1,2.5,7.4,5.8,9.9,10c2.4,4.1,3.7,8.6,3.7,13.5
					V388H4743.2z M4743.8,365.4h73.1v-28.3h-78.3v23.1c0,1.4,0.5,2.6,1.6,3.7C4741.2,364.8,4742.4,365.4,4743.8,365.4z"/>
			</g>
		</g>
	</g>
	<g>
		<g>
			<path class="st0" d="M10.4,66.3h95.3l151.5,192.6l-89.6,114.9H69c-0.5,0-0.7-0.5-0.4-0.9l115.6-143.7l-46.8,0.3L10,67.1
				C9.7,66.8,10,66.3,10.4,66.3z"/>
			<path class="st0" d="M434.9,325.1h-95.3L188.1,132.5l89.6-114.9h98.6c0.5,0,0.7,0.5,0.4,0.9l-50.9,63.3l-21.3,26.5l-43.3,53.9
				l46.8-0.3l127.4,162.3C435.6,324.6,435.4,325.1,434.9,325.1z"/>
		</g>
		<g>
			<g>
				<path d="M488.1,274.7V123.5h27.1l58.6,69.7l58.4-69.7h27.3v151.2h-22.9V153.9l-62.8,74.8l-63-74.8v120.8H488.1z"/>
				<path d="M745.9,274.7V146.1h-64.3v-22.7h151.2v22.7h-64.3v128.5h-22.6V274.7z"/>
				<path d="M867.6,270.9c-4.1-2.5-7.5-5.8-10-10c-2.5-4.1-3.8-8.6-3.8-13.5v-67.2c0-4.9,1.3-9.4,3.8-13.5s5.8-7.5,10-10
					c4.1-2.5,8.6-3.8,13.5-3.8h69.3c5,0,9.6,1.3,13.8,3.8c4.1,2.5,7.4,5.8,9.9,10c2.4,4.1,3.7,8.6,3.7,13.5v44.9H876.6v21.6
					c0,1.4,0.5,2.6,1.6,3.7c1.1,1,2.3,1.6,3.7,1.6h96v22.7h-96.6C876.3,274.7,871.8,273.4,867.6,270.9z M876.5,203.9h78.3v-23.1
					c0-1.4-0.5-2.6-1.5-3.7c-1-1.1-2.2-1.6-3.6-1.6h-68c-1.4,0-2.6,0.5-3.7,1.6c-1,1-1.6,2.3-1.6,3.7L876.5,203.9L876.5,203.9z"/>
				<path d="M1019.2,270.9c-4.1-2.5-7.5-5.8-10-10c-2.5-4.1-3.8-8.6-3.8-13.5v-67.2c0-4.9,1.3-9.4,3.8-13.5s5.8-7.5,10-10
					c4.1-2.5,8.6-3.8,13.5-3.8h96.2v22.7h-95.6c-1.4,0-2.6,0.5-3.7,1.6c-1,1-1.6,2.3-1.6,3.7v65.9c0,1.4,0.5,2.6,1.6,3.7
					s2.3,1.6,3.7,1.6h96v22.7h-96.5C1027.9,274.7,1023.4,273.4,1019.2,270.9z"/>
				<path d="M1158.4,274.7V113h22.7v39.9h73.9c4.9,0,9.4,1.3,13.5,3.8s7.5,5.8,10,10c2.5,4.1,3.8,8.6,3.8,13.5v94.5h-22.7v-93.9
					c0-1.4-0.5-2.6-1.6-3.7c-1.1-1.1-2.3-1.6-3.7-1.6h-68c-1.4,0-2.6,0.5-3.7,1.6c-1,1-1.6,2.3-1.6,3.7v93.9L1158.4,274.7
					L1158.4,274.7z"/>
				<path d="M1304.3,274.7v-27.1l120.8-101.4h-120.8v-22.7h151.2v27.1L1334.8,252h120.8v22.7H1304.3z"/>
				<path d="M1483.2,135.6V113h22.7v22.7h-22.7V135.6z M1483.2,274.7V152.9h22.7v121.8H1483.2z"/>
				<path d="M1548.6,270.9c-4.1-2.5-7.5-5.8-10-10c-2.5-4.1-3.8-8.6-3.8-13.5V113h22.7v133.8c0,1.4,0.5,2.6,1.6,3.7s2.3,1.6,3.7,1.6
					h22.1v22.7h-22.7C1557.3,274.7,1552.8,273.4,1548.6,270.9z"/>
				<path d="M1621.1,270.9c-4.1-2.5-7.5-5.8-10-10c-2.5-4.1-3.8-8.6-3.8-13.5V113h22.7v133.8c0,1.4,0.5,2.6,1.6,3.7s2.3,1.6,3.7,1.6
					h22.1v22.7h-22.7C1629.7,274.7,1625.2,273.4,1621.1,270.9z"/>
				<path d="M1707.1,274.7c-5,0-9.6-1.3-13.8-3.8c-4.1-2.5-7.4-5.8-9.9-10c-2.5-4.1-3.7-8.6-3.7-13.5v-44.9h101v-21.6
					c0-1.4-0.5-2.6-1.5-3.7c-1-1.1-2.2-1.6-3.6-1.6h-96v-22.7h96.6c5,0,9.6,1.3,13.8,3.8c4.1,2.5,7.4,5.8,9.9,10
					c2.4,4.1,3.7,8.6,3.7,13.5v94.5H1707.1z M1707.7,252h73.1v-28.3h-78.3v23.1c0,1.4,0.5,2.6,1.6,3.7S1706.3,252,1707.7,252z"/>
			</g>
		</g>
	</g>
</g>
</svg>
